<svg id="goal" xmlns="http://www.w3.org/2000/svg" viewBox="0 0 36.33 36.33"><defs><style>.cls-1{fill:#76c043;}.cls-2,.cls-3,.cls-4{fill:none;stroke-linecap:round;}.cls-2{stroke:#76c043;stroke-miterlimit:10;}.cls-3,.cls-4{stroke:#292728;stroke-linejoin:round;}.cls-3{stroke-width:3px;}</style></defs><path id="secondary" class="cls-1" d="M30.56,14.18v4.55a.71.71,0,0,0,.71.71h4.55a.72.72,0,0,0,.5-.2l4.13-4.13a.72.72,0,0,0-.51-1.22H36.83a.72.72,0,0,1-.72-.72V10.06a.72.72,0,0,0-1.22-.51l-4.13,4.13A.72.72,0,0,0,30.56,14.18Z" transform="translate(-6.83 -6.83)"/><path id="primary" class="cls-2" d="M30.56,19.44l-4.63,4.63m4.63-8.94v4.31h4.31A3,3,0,0,0,37,18.57L40.6,15a.62.62,0,0,0-.44-1.06h-4V9.84a.62.62,0,0,0-1.06-.44L31.43,13A3,3,0,0,0,30.56,15.13Z" transform="translate(-6.83 -6.83)"/><path id="primary-2" class="cls-3" d="M25.61,8.33H25A16.67,16.67,0,1,0,41.67,25v-.61" transform="translate(-6.83 -6.83)"/><path id="primary-3" class="cls-3" d="M34.07,26.85A9.26,9.26,0,1,1,23.15,15.93" transform="translate(-6.83 -6.83)"/><path class="cls-4" d="M28.73,23.46a4.37,4.37,0,0,1,.33,1.36,4.16,4.16,0,1,1-4.43-3.88,4.22,4.22,0,0,1,2,.37" transform="translate(-6.83 -6.83)"/></svg>