<svg id="Layer_1" data-name="Layer 1" xmlns="http://www.w3.org/2000/svg" xmlns:xlink="http://www.w3.org/1999/xlink" viewBox="0 0 500 500"><defs><style>.cls-1{fill:url(#linear-gradient);}.cls-2,.cls-3,.cls-4,.cls-6{fill:none;stroke-linecap:round;}.cls-2,.cls-4,.cls-5,.cls-6{stroke:#fff;}.cls-2,.cls-3,.cls-4{stroke-linejoin:round;}.cls-2{stroke-width:40px;}.cls-3{stroke:#006837;stroke-width:32px;opacity:0.82;}.cls-4{stroke-width:10px;}.cls-5{fill:#fff;stroke-width:9px;}.cls-5,.cls-6{stroke-miterlimit:10;}.cls-6{stroke-width:11px;}</style><linearGradient id="linear-gradient" x1="5" y1="250" x2="495" y2="250" gradientUnits="userSpaceOnUse"><stop offset="0" stop-color="#39b54a"/><stop offset="1" stop-color="#39b54a"/></linearGradient></defs><circle class="cls-1" cx="250" cy="250" r="245"/><path id="primary-2" class="cls-2" d="M253.38,86.69h-6A165.05,165.05,0,1,0,412.4,251.74h0v-6"/><path id="primary-3" class="cls-3" d="M337.15,270.06A91.68,91.68,0,1,1,229,161.94"/><path class="cls-4" d="M284.28,236.49A43.2,43.2,0,0,1,287.54,250a41.19,41.19,0,1,1-43.86-38.42,41.87,41.87,0,0,1,19.8,3.66"/><path id="secondary" class="cls-5" d="M309.5,135.74V183.9a7.52,7.52,0,0,0,7.51,7.52h48.16a7.63,7.63,0,0,0,5.3-2.12l43.71-43.71a7.63,7.63,0,0,0-5.4-12.92H375.86a7.62,7.62,0,0,1-7.62-7.62h0V92.13a7.62,7.62,0,0,0-12.91-5.4l-43.72,43.72A7.6,7.6,0,0,0,309.5,135.74Z"/><path id="primary" class="cls-6" d="M309.5,191.42l-49,49m49-94.63v45.62h45.62a31.75,31.75,0,0,0,22.54-9.21l38.11-37.79a6.57,6.57,0,0,0-4.66-11.22H368.77V89.8a6.57,6.57,0,0,0-11.22-4.66l-38.84,38.11A31.73,31.73,0,0,0,309.5,145.8Z"/></svg>