<svg id="Layer_1" data-name="Layer 1" xmlns="http://www.w3.org/2000/svg" viewBox="0 0 26.2 35.15"><defs><style>.cls-1{fill:#231f20;}.cls-2{fill:#009444;}.cls-3{fill:#39b54a;}.cls-4{fill:#006838;}</style></defs><path class="cls-1" d="M37.15,7.94H14a2.61,2.61,0,0,0-2.7,2.33V40.69h0a2.39,2.39,0,0,0,2.39,2.39H37.15a.31.31,0,0,0,.31-.31.3.3,0,0,0-.31-.3,1.78,1.78,0,0,1,0-3.55h0a.31.31,0,0,0,.31-.31V8.24A.3.3,0,0,0,37.15,7.94Zm-.3,2.53h-6.7a.31.31,0,0,0,0,.62h6.7v1.84h-3a.31.31,0,1,0,0,.62h3V33.43H33.93a.31.31,0,1,0,0,.62h2.92v1.53a2.72,2.72,0,0,1-2.73,2.72H14.28v-2h5.81a.3.3,0,0,0,.31-.3.31.31,0,0,0-.31-.31H14.28V31.62h2.63a.3.3,0,0,0,.31-.3.31.31,0,0,0-.31-.31H14.28V10.45h1.58a.31.31,0,0,0,0-.62H14.28V8.55H34.92a1.92,1.92,0,0,1,1.93,1.92Zm-25-.2a2,2,0,0,1,1.78-1.69V38.3h0a2.41,2.41,0,0,0-1.78.79V10.27ZM34.81,40.69a2.42,2.42,0,0,0,.76,1.78H13.66A1.78,1.78,0,0,1,11.92,41H28.86a.31.31,0,0,0,.31-.31.3.3,0,0,0-.31-.3h-17a2.13,2.13,0,0,1,.15-.49H16a.3.3,0,0,0,.31-.3.31.31,0,0,0-.31-.31H12.52a1.77,1.77,0,0,1,1.14-.41H35.57A2.38,2.38,0,0,0,34.81,40.69Z" transform="translate(-11.27 -7.94)"/><path class="cls-2" d="M25.69,29.26a6.15,6.15,0,1,0-6.15-6.15A6.16,6.16,0,0,0,25.69,29.26Zm0-11.69a5.54,5.54,0,1,1-5.54,5.54A5.55,5.55,0,0,1,25.69,17.57Z" transform="translate(-11.27 -7.94)"/><path class="cls-3" d="M23.19,25.61a2.26,2.26,0,0,1,.65,1.27.31.31,0,0,0,.19.24l.12,0a.3.3,0,0,0,.18-.06,2.32,2.32,0,0,1,2.72,0,.32.32,0,0,0,.3,0,.31.31,0,0,0,.19-.24A2.35,2.35,0,0,1,29.46,25a.28.28,0,0,0,.24-.18.3.3,0,0,0,0-.3,2.37,2.37,0,0,1,0-2.72.3.3,0,0,0,0-.3.31.31,0,0,0-.24-.19,2.32,2.32,0,0,1-1.92-1.93.32.32,0,0,0-.19-.23.32.32,0,0,0-.3,0,2.32,2.32,0,0,1-2.72,0,.32.32,0,0,0-.3,0,.32.32,0,0,0-.19.23,2.25,2.25,0,0,1-.65,1.28,2.32,2.32,0,0,1-1.27.65.31.31,0,0,0-.24.19.32.32,0,0,0,0,.3,2.32,2.32,0,0,1,0,2.72.32.32,0,0,0,0,.3.28.28,0,0,0,.24.18A2.34,2.34,0,0,1,23.19,25.61Zm-.74-3.84A3,3,0,0,0,23.63,21a2.91,2.91,0,0,0,.72-1.17,3,3,0,0,0,2.68,0,3.06,3.06,0,0,0,1.9,1.9,3,3,0,0,0,0,2.68,2.91,2.91,0,0,0-1.17.72A3,3,0,0,0,27,26.35a3,3,0,0,0-2.68,0,2.94,2.94,0,0,0-1.9-1.9,3,3,0,0,0,0-2.68Z" transform="translate(-11.27 -7.94)"/><path class="cls-2" d="M19,25.86a6.1,6.1,0,0,0,.34,3.38.27.27,0,0,0,.18.18A7.81,7.81,0,0,0,22,29.9a3,3,0,0,0,.95-.14,6.24,6.24,0,0,0,2.64,2.15.27.27,0,0,0,.12,0,.31.31,0,0,0,.13,0,6.29,6.29,0,0,0,2.63-2.15,3,3,0,0,0,.95.14h0a7.83,7.83,0,0,0,2.43-.48.28.28,0,0,0,.17-.18,6.17,6.17,0,0,0,.35-3.38,6.21,6.21,0,0,0,2.14-2.63.28.28,0,0,0,0-.25,6.27,6.27,0,0,0-2.14-2.63A6.17,6.17,0,0,0,32,17a.33.33,0,0,0-.17-.18,8,8,0,0,0-2.43-.47,3,3,0,0,0-.95.13,6.24,6.24,0,0,0-2.63-2.14.3.3,0,0,0-.26,0,6.24,6.24,0,0,0-2.63,2.14,3,3,0,0,0-.95-.13,7.94,7.94,0,0,0-2.42.47.32.32,0,0,0-.18.18A6.1,6.1,0,0,0,19,20.35,6.23,6.23,0,0,0,16.89,23a.28.28,0,0,0,0,.25A6.17,6.17,0,0,0,19,25.86Zm.49-5.05a.27.27,0,0,0,.19-.17.29.29,0,0,0,0-.27c-.43-.8,0-2.36.2-3.05A7.2,7.2,0,0,1,22,16.93a2.13,2.13,0,0,1,1,.2.3.3,0,0,0,.26,0A.31.31,0,0,0,23.4,17c.26-.88,1.64-1.71,2.29-2,.65.31,2,1.14,2.3,2a.29.29,0,0,0,.17.19.32.32,0,0,0,.27,0,2.06,2.06,0,0,1,1-.2,7.21,7.21,0,0,1,2.08.39c.23.69.62,2.25.19,3.05a.32.32,0,0,0,0,.27.27.27,0,0,0,.19.17c.88.27,1.71,1.65,2,2.3-.31.65-1.14,2-2,2.29a.29.29,0,0,0-.19.18.3.3,0,0,0,0,.26c.43.81,0,2.37-.19,3.05a7.29,7.29,0,0,1-2.08.39,2.07,2.07,0,0,1-1-.19.32.32,0,0,0-.27,0,.35.35,0,0,0-.18.2c-.26.88-1.64,1.7-2.29,2-.65-.32-2-1.14-2.29-2a.32.32,0,0,0-.18-.2l-.12,0a.23.23,0,0,0-.14,0,2.14,2.14,0,0,1-1,.19,7.2,7.2,0,0,1-2.07-.39c-.24-.68-.63-2.24-.2-3.05a.27.27,0,0,0,0-.26.29.29,0,0,0-.19-.18c-.88-.26-1.7-1.64-2-2.29C17.83,22.46,18.65,21.08,19.53,20.81Z" transform="translate(-11.27 -7.94)"/><path d="M30.15,41h3.4a.31.31,0,0,0,.31-.31.3.3,0,0,0-.31-.3h-3.4a.3.3,0,0,0-.31.3A.31.31,0,0,0,30.15,41Z" transform="translate(-11.27 -7.94)"/><path class="cls-1" d="M29.47,35.7h-6a.3.3,0,0,0-.3.31.29.29,0,0,0,.3.3h6a.3.3,0,0,0,.31-.3A.31.31,0,0,0,29.47,35.7Z" transform="translate(-11.27 -7.94)"/><path class="cls-1" d="M24.1,11.09h4.08a.31.31,0,1,0,0-.62H24.1a.31.31,0,1,0,0,.62Z" transform="translate(-11.27 -7.94)"/><path class="cls-4" d="M24.25,22.62h2.88a.3.3,0,0,0,.31-.3.31.31,0,0,0-.31-.31H24.25a.3.3,0,0,0-.3.31A.29.29,0,0,0,24.25,22.62Z" transform="translate(-11.27 -7.94)"/><path class="cls-4" d="M26.64,23.82H24.75a.31.31,0,0,0,0,.62h1.89a.31.31,0,0,0,0-.62Z" transform="translate(-11.27 -7.94)"/></svg>