<svg xmlns="http://www.w3.org/2000/svg" xmlns:xlink="http://www.w3.org/1999/xlink" viewBox="0 0 500 500"><defs><style>.cls-1{fill:url(#linear-gradient);}.cls-2,.cls-3,.cls-4{fill:none;stroke-linecap:round;stroke-linejoin:round;}.cls-2,.cls-3{stroke:#fff;}.cls-2{stroke-width:40px;}.cls-3,.cls-4{stroke-width:18px;}.cls-4{stroke:#006837;opacity:0.89;}</style><linearGradient id="linear-gradient" x1="5" y1="250" x2="495" y2="250" gradientUnits="userSpaceOnUse"><stop offset="0" stop-color="#39b54a"/><stop offset="1" stop-color="#39b54a"/></linearGradient></defs><g id="Layer_2" data-name="Layer 2"><circle class="cls-1" cx="250" cy="250" r="245"/><path class="cls-2" d="M250,197.94V333.62m0-135.68c0-31.66,0-47.49-6.16-59.58a56.52,56.52,0,0,0-24.71-24.71c-12.09-6.16-27.92-6.16-59.58-6.16H145.41c-7.91,0-11.87,0-14.89,1.54a14.19,14.19,0,0,0-6.18,6.18c-1.54,3-1.54,7-1.54,14.89V282.74c0,7.92,0,11.88,1.54,14.9a14.19,14.19,0,0,0,6.18,6.18c3,1.54,7,1.54,14.89,1.54h41.65c7.63,0,11.45,0,15.14.66a42.26,42.26,0,0,1,9.53,2.88c3.43,1.5,6.61,3.62,13,7.85L250,333.62m0-135.68c0-31.66,0-47.49,6.16-59.58a56.52,56.52,0,0,1,24.71-24.71c12.09-6.16,27.92-6.16,59.58-6.16h14.14c7.91,0,11.87,0,14.89,1.54a14.19,14.19,0,0,1,6.18,6.18c1.54,3,1.54,7,1.54,14.89V282.74c0,7.92,0,11.88-1.54,14.9a14.19,14.19,0,0,1-6.18,6.18c-3,1.54-7,1.54-14.89,1.54H312.94c-7.63,0-11.45,0-15.14.66a42.26,42.26,0,0,0-9.53,2.88c-3.43,1.5-6.61,3.62-13,7.85L250,333.62"/><path class="cls-3" d="M122.8,389.37l62.07,23.31a185.24,185.24,0,0,0,130.26,0l62.07-23.31"/><path class="cls-4" d="M122.8,361.37l62.07,23.31a185.24,185.24,0,0,0,130.26,0l62.07-23.31"/><path class="cls-3" d="M152.86,343.71l47.4,17.81a141.51,141.51,0,0,0,99.48,0l47.4-17.81"/></g></svg>